<svg xmlns="http://www.w3.org/2000/svg" viewBox="0 0 400 84.28"><defs><style>.cls-1{fill:#2a76ff;}</style></defs><title>Ресурс 1</title><g id="Слой_2" data-name="Слой 2"><g id="Слайд_2" data-name="Слайд №2"><g id="UA"><path class="cls-1" d="M17.59,65.35a4.62,4.62,0,0,1-1.22-3.28V26.64H4.52A4.44,4.44,0,0,1,1.3,25.37,4.16,4.16,0,0,1,0,22.27a4.57,4.57,0,0,1,1.3-3.33,4.28,4.28,0,0,1,3.22-1.35H36.8a4.63,4.63,0,0,1,1.81.38,5.27,5.27,0,0,1,1.55,1,4.72,4.72,0,0,1,1.32,3.31,4.07,4.07,0,0,1-1.35,3.15,4.76,4.76,0,0,1-3.33,1.22H25.37V62.07A4.36,4.36,0,0,1,24,65.32a4.51,4.51,0,0,1-3.28,1.32A4.13,4.13,0,0,1,17.59,65.35Z"/><path class="cls-1" d="M48,82.94a4.52,4.52,0,0,1-1.34-3.33V42.45a24.27,24.27,0,0,1,1.93-9.59A25,25,0,0,1,61.94,19.52a24.77,24.77,0,0,1,19.17,0A24.59,24.59,0,0,1,94.37,32.84,24.85,24.85,0,0,1,89.06,60a24.78,24.78,0,0,1-8,5.34,24.27,24.27,0,0,1-9.59,1.93,24.8,24.8,0,0,1-8.59-1.47,24.32,24.32,0,0,1-7.32-4.27v18.1a4.75,4.75,0,0,1-1.22,3.33,4.07,4.07,0,0,1-3.15,1.34A4.44,4.44,0,0,1,48,82.94ZM77.67,57a16,16,0,0,0,8.47-8.52,15.72,15.72,0,0,0-8.47-20.61,16.11,16.11,0,0,0-12.3,0,15.85,15.85,0,0,0-5.08,3.4,16,16,0,0,0-3.41,5.06,15.74,15.74,0,0,0,0,12.15,15.9,15.9,0,0,0,3.41,5.06A15.54,15.54,0,0,0,65.37,57a16.11,16.11,0,0,0,12.3,0Z"/><path class="cls-1" d="M118.17,65.32a24.69,24.69,0,0,1-8-5.34,24.68,24.68,0,0,1,0-35.12,24.85,24.85,0,0,1,8-5.34,24.81,24.81,0,0,1,19.14,0,25.08,25.08,0,0,1,8,5.31,25.38,25.38,0,0,1,5.37,7.93,24.29,24.29,0,0,1,2,9.5,4.11,4.11,0,0,1-1.22,3,4.23,4.23,0,0,1-3.15,1.22H112.83a14.83,14.83,0,0,0,1.93,4.78,16.78,16.78,0,0,0,3.36,3.87,15.11,15.11,0,0,0,9.66,3.45,17,17,0,0,0,4.29-.46,13.27,13.27,0,0,0,3.53-1.52,5.49,5.49,0,0,1,2.7-.81,4.27,4.27,0,0,1,3.1,1.37,5.12,5.12,0,0,1,1,1.52,4.78,4.78,0,0,1,.35,1.78q0,3.1-4.47,5a21.22,21.22,0,0,1-4.76,1.33,34.87,34.87,0,0,1-5.71.45A24.4,24.4,0,0,1,118.17,65.32ZM143.48,39a14.79,14.79,0,0,0-1.83-5.06,15.08,15.08,0,0,0-3.45-4.09,16.32,16.32,0,0,0-15.84-2.69,15.25,15.25,0,0,0-8,6.83,15.41,15.41,0,0,0-1.78,5Z"/><path class="cls-1" d="M244,65.35A25.33,25.33,0,0,1,230.66,52a24.22,24.22,0,0,1-1.93-9.58V24a23.47,23.47,0,0,1,2-9.78,22.1,22.1,0,0,1,5.67-7.65,24.88,24.88,0,0,1,8.31-4.83A31,31,0,0,1,254.86,0h8.89a4.46,4.46,0,0,1,3.16,1.25,4,4,0,0,1,1.32,3.07,4.2,4.2,0,0,1-1.3,3.18,4.4,4.4,0,0,1-3.18,1.24h-8.69a20.62,20.62,0,0,0-6.53,1,17.13,17.13,0,0,0-5.46,3,14.93,14.93,0,0,0-3.87,4.7,14.07,14.07,0,0,0-1.57,6,24.84,24.84,0,0,1,25.54-3.86,24.56,24.56,0,0,1,13.27,13.32A24.85,24.85,0,0,1,271.13,60a24.82,24.82,0,0,1-8,5.34,24.92,24.92,0,0,1-19.16,0ZM259.74,57a15.8,15.8,0,0,0,9.66-14.59,15.63,15.63,0,0,0-1.2-6.08,15.44,15.44,0,0,0-3.38-5.06,15.82,15.82,0,0,0-11.28-4.62,15.29,15.29,0,0,0-6.08,1.22,16,16,0,0,0-5.06,3.4A16.41,16.41,0,0,0,239,36.37a15.62,15.62,0,0,0,0,12.15,15.87,15.87,0,0,0,3.4,5.06,15.45,15.45,0,0,0,11.19,4.68A15.87,15.87,0,0,0,259.74,57Z"/><path class="cls-1" d="M287.48,10.07a5,5,0,0,1,0-7.17,4.89,4.89,0,0,1,3.61-1.48A5.1,5.1,0,0,1,294.7,2.9a4.71,4.71,0,0,1,1.53,3.61,4.67,4.67,0,0,1-1.53,3.56,5.18,5.18,0,0,1-3.61,1.52A5,5,0,0,1,287.48,10.07Zm.38,55.63a4.25,4.25,0,0,1-1.34-3.17V22.11a4.17,4.17,0,0,1,1.37-3.2,4.41,4.41,0,0,1,3.25-1.32,4.13,4.13,0,0,1,3.1,1.32,4.44,4.44,0,0,1,1.27,3.2V62.53a4.31,4.31,0,0,1-1.29,3.17,4.26,4.26,0,0,1-3.13,1.3A4.48,4.48,0,0,1,287.86,65.7Z"/><path class="cls-1" d="M322.65,65.35a4.62,4.62,0,0,1-1.22-3.28V26.64H309.59a4.47,4.47,0,0,1-3.23-1.27,4.19,4.19,0,0,1-1.29-3.1,4.6,4.6,0,0,1,1.29-3.33,4.3,4.3,0,0,1,3.23-1.35h32.28a4.58,4.58,0,0,1,1.8.38,5.14,5.14,0,0,1,1.55,1,4.68,4.68,0,0,1,1.33,3.31,4.07,4.07,0,0,1-1.35,3.15,4.8,4.8,0,0,1-3.33,1.22H330.43V62.07a4.36,4.36,0,0,1-1.35,3.25,4.49,4.49,0,0,1-3.27,1.32A4.17,4.17,0,0,1,322.65,65.35Z"/><path class="cls-1" d="M365.89,65.35A24.31,24.31,0,0,1,358,60a25,25,0,0,1-5.31-27.14,25.1,25.1,0,0,1,5.31-8,24.28,24.28,0,0,1,7.88-5.36,23.83,23.83,0,0,1,9.51-1.91,24.19,24.19,0,0,1,9.48,1.88,24.49,24.49,0,0,1,7.85,5.29A25,25,0,0,1,398,32.64a25.36,25.36,0,0,1,2,9.5V62.37a4.51,4.51,0,0,1-1.32,3.28A4.38,4.38,0,0,1,395.42,67a4.11,4.11,0,0,1-3.15-1.32,4.7,4.7,0,0,1-1.22-3.31l-.05-.71a24.17,24.17,0,0,1-15.6,5.59A24,24,0,0,1,365.89,65.35ZM381.55,57a15.76,15.76,0,0,0,5-3.46,15.6,15.6,0,0,0,3.3-5.06,16.36,16.36,0,0,0,0-12.15,15.7,15.7,0,0,0-3.3-5.06,15.87,15.87,0,0,0-5.06-3.4,15.38,15.38,0,0,0-6.12-1.22,15.18,15.18,0,0,0-6.1,1.22,15.46,15.46,0,0,0-5,3.4A16.13,16.13,0,0,0,361,36.37a16.1,16.1,0,0,0,0,12.15,16,16,0,0,0,3.33,5.06,15.17,15.17,0,0,0,5,3.46,15.35,15.35,0,0,0,6.1,1.22A15.52,15.52,0,0,0,381.55,57Z"/><path class="cls-1" d="M199.7,23.82c.83-2.54,1.56-3.92,2.71-4.74a6.2,6.2,0,0,1,3.9-1.29,6.27,6.27,0,0,1,4,1.29c1.14.82,1.87,2.2,2.7,4.74l11.56,35.73c.68,2.15.83,3.06.52,4.21-.47,1.87-2.66,3.3-5,3.3a4.8,4.8,0,0,1-3.38-1.29c-.78-.72-1.2-1.67-1.82-3.68l-9.11-29.42-9.53,28.65c-.78,2.34-1.46,3.68-2.6,4.55a6,6,0,0,1-7.18,0c-1.15-.87-1.82-2.21-2.61-4.55L174.3,32.67l-9.11,29.42c-.63,2-1,3-1.82,3.68A4.82,4.82,0,0,1,160,67.06c-2.34,0-4.52-1.43-5-3.3-.32-1.15-.16-2.06.52-4.21l11.55-35.73c.84-2.54,1.56-3.92,2.71-4.74a6.63,6.63,0,0,1,7.86,0c1.15.82,1.87,2.2,2.71,4.74L190,52.47Z"/></g></g></g></svg>